<svg xmlns="http://www.w3.org/2000/svg" viewBox="0 0 2082.1858504000006 1718.9649131499998" width="2082.1858504000006" height="1718.9649131499998"><g transform="translate(669.5666860000001, 699.8307068500001)"><rect x="0" y="0" width="380" height="98" style="fill:#fefdfe"></rect><rect x="0" y="0" width="380" height="25" style="fill:#e6eaf2"></rect><text x="10" y="14" style="font-family:&#x27;Arial&#x27;, sans-serif;font-size:14px;fill:#202020">Roles</text><g transform="translate(0, 15)"><g transform="translate(10, 25)"><g transform="translate(0, 0)"><clipPath id="clip_f171caad-1752-4c28-bc49-ec8796b79cf6"><rect x="21" y="0" width="191" height="17"></rect></clipPath><text x="21" y="14" style="fill:#202020;font-family:Arial;font-size:14px" clip-path="url(#clip_f171caad-1752-4c28-bc49-ec8796b79cf6)">_id</text></g><text x="233" y="14" style="fill:#202020;font-family:Arial;font-size:14px" width="80">objectId</text><text x="334" y="14" width="22" height="14" style="fill:#202020;font-family:Arial;font-size:14px">NN</text></g><g transform="translate(10, 49)"><g transform="translate(0, 0)"><clipPath id="clip_c009abf8-b9da-4cb3-bf24-74a401a7f8c1"><rect x="21" y="0" width="191" height="17"></rect></clipPath><text x="21" y="14" style="fill:#202020;font-family:Arial;font-size:14px" clip-path="url(#clip_c009abf8-b9da-4cb3-bf24-74a401a7f8c1)">name</text></g><text x="233" y="14" style="fill:#202020;font-family:Arial;font-size:14px" width="80">string</text><text x="334" y="14" width="22" height="14" style="fill:#202020;font-family:Arial;font-size:14px"></text></g></g><rect x="0" y="0" width="380" height="98" style="fill:none;stroke:#e6eaf2"></rect></g><g transform="translate(1136.1485741500003, 580.1186685999998)"><rect x="0" y="0" width="380" height="194" style="fill:#fefdfe"></rect><rect x="0" y="0" width="380" height="25" style="fill:#e6eaf2"></rect><text x="10" y="14" style="font-family:&#x27;Arial&#x27;, sans-serif;font-size:14px;fill:#202020">Notifications</text><g transform="translate(0, 15)"><g transform="translate(10, 25)"><g transform="translate(0, 0)"><clipPath id="clip_8c163f96-7946-430c-a4cf-ad9077bdecca"><rect x="21" y="0" width="191" height="17"></rect></clipPath><text x="21" y="14" style="fill:#202020;font-family:Arial;font-size:14px" clip-path="url(#clip_8c163f96-7946-430c-a4cf-ad9077bdecca)">_id</text></g><text x="233" y="14" style="fill:#202020;font-family:Arial;font-size:14px" width="80">objectId</text><text x="334" y="14" width="22" height="14" style="fill:#202020;font-family:Arial;font-size:14px">NN</text></g><g transform="translate(10, 49)"><g transform="translate(0, 0)"><clipPath id="clip_4e68b9f3-3aa8-4c12-881f-ef32378e3ef0"><rect x="21" y="0" width="191" height="17"></rect></clipPath><text x="21" y="14" style="fill:#202020;font-family:Arial;font-size:14px" clip-path="url(#clip_4e68b9f3-3aa8-4c12-881f-ef32378e3ef0)">userId</text></g><text x="233" y="14" style="fill:#202020;font-family:Arial;font-size:14px" width="80">objectId</text><text x="334" y="14" width="22" height="14" style="fill:#202020;font-family:Arial;font-size:14px"></text></g><g transform="translate(10, 73)"><g transform="translate(0, 0)"><clipPath id="clip_5bec5e39-1b84-4386-b064-93e887fa5800"><rect x="21" y="0" width="191" height="17"></rect></clipPath><text x="21" y="14" style="fill:#202020;font-family:Arial;font-size:14px" clip-path="url(#clip_5bec5e39-1b84-4386-b064-93e887fa5800)">message</text></g><text x="233" y="14" style="fill:#202020;font-family:Arial;font-size:14px" width="80">string</text><text x="334" y="14" width="22" height="14" style="fill:#202020;font-family:Arial;font-size:14px"></text></g><g transform="translate(10, 97)"><g transform="translate(0, 0)"><clipPath id="clip_923fe36b-d5a0-4127-8e18-20fdfaeee1e8"><rect x="21" y="0" width="191" height="17"></rect></clipPath><text x="21" y="14" style="fill:#202020;font-family:Arial;font-size:14px" clip-path="url(#clip_923fe36b-d5a0-4127-8e18-20fdfaeee1e8)">isRead</text></g><text x="233" y="14" style="fill:#202020;font-family:Arial;font-size:14px" width="80">bool</text><text x="334" y="14" width="22" height="14" style="fill:#202020;font-family:Arial;font-size:14px"></text></g><g transform="translate(10, 121)"><g transform="translate(0, 0)"><clipPath id="clip_36f96355-8e1f-472f-971d-944be1496e51"><rect x="21" y="0" width="191" height="17"></rect></clipPath><text x="21" y="14" style="fill:#202020;font-family:Arial;font-size:14px" clip-path="url(#clip_36f96355-8e1f-472f-971d-944be1496e51)">createdAt</text></g><text x="233" y="14" style="fill:#202020;font-family:Arial;font-size:14px" width="80">date</text><text x="334" y="14" width="22" height="14" style="fill:#202020;font-family:Arial;font-size:14px"></text></g><g transform="translate(10, 145)"><g transform="translate(0, 0)"><clipPath id="clip_11c738ab-5f7d-41e3-847b-6e88164a856a"><rect x="21" y="0" width="191" height="17"></rect></clipPath><text x="21" y="14" style="fill:#202020;font-family:Arial;font-size:14px" clip-path="url(#clip_11c738ab-5f7d-41e3-847b-6e88164a856a)">updatedAt</text></g><text x="233" y="14" style="fill:#202020;font-family:Arial;font-size:14px" width="80">date</text><text x="334" y="14" width="22" height="14" style="fill:#202020;font-family:Arial;font-size:14px"></text></g></g><rect x="0" y="0" width="380" height="194" style="fill:none;stroke:#e6eaf2"></rect></g><g transform="translate(1602.1858504000006, 1230.7720803999998)"><rect x="0" y="0" width="380" height="218" style="fill:#fefdfe"></rect><rect x="0" y="0" width="380" height="25" style="fill:#e6eaf2"></rect><text x="10" y="14" style="font-family:&#x27;Arial&#x27;, sans-serif;font-size:14px;fill:#202020">Companies</text><g transform="translate(0, 15)"><g transform="translate(10, 25)"><g transform="translate(0, 0)"><clipPath id="clip_bbf2e3df-3d3b-455a-a624-4f8e7ca180f7"><rect x="21" y="0" width="191" height="17"></rect></clipPath><text x="21" y="14" style="fill:#202020;font-family:Arial;font-size:14px" clip-path="url(#clip_bbf2e3df-3d3b-455a-a624-4f8e7ca180f7)">_id</text></g><text x="233" y="14" style="fill:#202020;font-family:Arial;font-size:14px" width="80">objectId</text><text x="334" y="14" width="22" height="14" style="fill:#202020;font-family:Arial;font-size:14px">NN</text></g><g transform="translate(10, 49)"><g transform="translate(0, 0)"><clipPath id="clip_e63a0592-ccef-4e28-b099-d8a1f60f8bac"><rect x="21" y="0" width="191" height="17"></rect></clipPath><text x="21" y="14" style="fill:#202020;font-family:Arial;font-size:14px" clip-path="url(#clip_e63a0592-ccef-4e28-b099-d8a1f60f8bac)">name</text></g><text x="233" y="14" style="fill:#202020;font-family:Arial;font-size:14px" width="80">string</text><text x="334" y="14" width="22" height="14" style="fill:#202020;font-family:Arial;font-size:14px"></text></g><g transform="translate(10, 73)"><g transform="translate(0, 0)"><clipPath id="clip_a4d7e073-0ea6-4675-a8c6-2345fdf84fe0"><rect x="21" y="0" width="191" height="17"></rect></clipPath><text x="21" y="14" style="fill:#202020;font-family:Arial;font-size:14px" clip-path="url(#clip_a4d7e073-0ea6-4675-a8c6-2345fdf84fe0)">email</text></g><text x="233" y="14" style="fill:#202020;font-family:Arial;font-size:14px" width="80">string</text><text x="334" y="14" width="22" height="14" style="fill:#202020;font-family:Arial;font-size:14px"></text></g><g transform="translate(10, 97)"><g transform="translate(0, 0)"><clipPath id="clip_316d2325-f009-4cfe-bf56-483ade18e95e"><rect x="21" y="0" width="191" height="17"></rect></clipPath><text x="21" y="14" style="fill:#202020;font-family:Arial;font-size:14px" clip-path="url(#clip_316d2325-f009-4cfe-bf56-483ade18e95e)">contactPhone</text></g><text x="233" y="14" style="fill:#202020;font-family:Arial;font-size:14px" width="80">string</text><text x="334" y="14" width="22" height="14" style="fill:#202020;font-family:Arial;font-size:14px"></text></g><g transform="translate(10, 121)"><g transform="translate(0, 0)"><clipPath id="clip_d85da5e6-9b2c-45c7-8bcf-10887094aeb1"><rect x="21" y="0" width="191" height="17"></rect></clipPath><text x="21" y="14" style="fill:#202020;font-family:Arial;font-size:14px" clip-path="url(#clip_d85da5e6-9b2c-45c7-8bcf-10887094aeb1)">rating</text></g><text x="233" y="14" style="fill:#202020;font-family:Arial;font-size:14px" width="80">decimal</text><text x="334" y="14" width="22" height="14" style="fill:#202020;font-family:Arial;font-size:14px"></text></g><g transform="translate(10, 145)"><g transform="translate(0, 0)"><clipPath id="clip_ffeb05d3-682c-4871-a399-021f4f58d8be"><rect x="21" y="0" width="191" height="17"></rect></clipPath><text x="21" y="14" style="fill:#202020;font-family:Arial;font-size:14px" clip-path="url(#clip_ffeb05d3-682c-4871-a399-021f4f58d8be)">description</text></g><text x="233" y="14" style="fill:#202020;font-family:Arial;font-size:14px" width="80">string</text><text x="334" y="14" width="22" height="14" style="fill:#202020;font-family:Arial;font-size:14px"></text></g><g transform="translate(10, 169)"><g transform="translate(0, 0)"><clipPath id="clip_ee689c01-1724-43c0-ba47-2393c7738448"><rect x="21" y="0" width="191" height="17"></rect></clipPath><text x="21" y="14" style="fill:#202020;font-family:Arial;font-size:14px" clip-path="url(#clip_ee689c01-1724-43c0-ba47-2393c7738448)">website</text></g><text x="233" y="14" style="fill:#202020;font-family:Arial;font-size:14px" width="80">string</text><text x="334" y="14" width="22" height="14" style="fill:#202020;font-family:Arial;font-size:14px"></text></g></g><rect x="0" y="0" width="380" height="218" style="fill:none;stroke:#e6eaf2"></rect></g><g transform="translate(671.6712902500001, 1424.9649131499998)"><rect x="0" y="0" width="380" height="194" style="fill:#fefdfe"></rect><rect x="0" y="0" width="380" height="25" style="fill:#e6eaf2"></rect><text x="10" y="14" style="font-family:&#x27;Arial&#x27;, sans-serif;font-size:14px;fill:#202020">Interviews</text><g transform="translate(0, 15)"><g transform="translate(10, 25)"><g transform="translate(0, 0)"><clipPath id="clip_292722a5-8d7f-4261-b242-bbea62d20b5a"><rect x="21" y="0" width="191" height="17"></rect></clipPath><text x="21" y="14" style="fill:#202020;font-family:Arial;font-size:14px" clip-path="url(#clip_292722a5-8d7f-4261-b242-bbea62d20b5a)">_id</text></g><text x="233" y="14" style="fill:#202020;font-family:Arial;font-size:14px" width="80">objectId</text><text x="334" y="14" width="22" height="14" style="fill:#202020;font-family:Arial;font-size:14px">NN</text></g><g transform="translate(10, 49)"><g transform="translate(0, 0)"><clipPath id="clip_841d02b3-2b80-4787-8b36-f43d369559a2"><rect x="21" y="0" width="191" height="17"></rect></clipPath><text x="21" y="14" style="fill:#202020;font-family:Arial;font-size:14px" clip-path="url(#clip_841d02b3-2b80-4787-8b36-f43d369559a2)">applicationId</text></g><text x="233" y="14" style="fill:#202020;font-family:Arial;font-size:14px" width="80">objectId</text><text x="334" y="14" width="22" height="14" style="fill:#202020;font-family:Arial;font-size:14px"></text></g><g transform="translate(10, 73)"><g transform="translate(0, 0)"><clipPath id="clip_def17cdb-251a-46ba-a811-342060d72e74"><rect x="21" y="0" width="191" height="17"></rect></clipPath><text x="21" y="14" style="fill:#202020;font-family:Arial;font-size:14px" clip-path="url(#clip_def17cdb-251a-46ba-a811-342060d72e74)">date</text></g><text x="233" y="14" style="fill:#202020;font-family:Arial;font-size:14px" width="80">date</text><text x="334" y="14" width="22" height="14" style="fill:#202020;font-family:Arial;font-size:14px"></text></g><g transform="translate(10, 97)"><g transform="translate(0, 0)"><clipPath id="clip_041930ae-f435-4c0b-966d-47a50baa0a13"><rect x="21" y="0" width="191" height="17"></rect></clipPath><text x="21" y="14" style="fill:#202020;font-family:Arial;font-size:14px" clip-path="url(#clip_041930ae-f435-4c0b-966d-47a50baa0a13)">status</text></g><text x="233" y="14" style="fill:#202020;font-family:Arial;font-size:14px" width="80">enum</text><text x="334" y="14" width="22" height="14" style="fill:#202020;font-family:Arial;font-size:14px"></text></g><g transform="translate(10, 121)"><g transform="translate(0, 0)"><clipPath id="clip_36521bbd-7eae-4f59-9909-b0bd822062b3"><rect x="21" y="0" width="191" height="17"></rect></clipPath><text x="21" y="14" style="fill:#202020;font-family:Arial;font-size:14px" clip-path="url(#clip_36521bbd-7eae-4f59-9909-b0bd822062b3)">createdAt</text></g><text x="233" y="14" style="fill:#202020;font-family:Arial;font-size:14px" width="80">date</text><text x="334" y="14" width="22" height="14" style="fill:#202020;font-family:Arial;font-size:14px"></text></g><g transform="translate(10, 145)"><g transform="translate(0, 0)"><clipPath id="clip_b2393069-ff3f-4ff0-be57-93325d0835cc"><rect x="21" y="0" width="191" height="17"></rect></clipPath><text x="21" y="14" style="fill:#202020;font-family:Arial;font-size:14px" clip-path="url(#clip_b2393069-ff3f-4ff0-be57-93325d0835cc)">updatedAt</text></g><text x="233" y="14" style="fill:#202020;font-family:Arial;font-size:14px" width="80">date</text><text x="334" y="14" width="22" height="14" style="fill:#202020;font-family:Arial;font-size:14px"></text></g></g><rect x="0" y="0" width="380" height="194" style="fill:none;stroke:#e6eaf2"></rect></g><g transform="translate(672.4472770000002, 842.0114137)"><rect x="0" y="0" width="380" height="218" style="fill:#fefdfe"></rect><rect x="0" y="0" width="380" height="25" style="fill:#e6eaf2"></rect><text x="10" y="14" style="font-family:&#x27;Arial&#x27;, sans-serif;font-size:14px;fill:#202020">Users</text><g transform="translate(0, 15)"><g transform="translate(10, 25)"><g transform="translate(0, 0)"><clipPath id="clip_601b7415-d74f-43f7-93ee-b2b8b5142f2b"><rect x="21" y="0" width="191" height="17"></rect></clipPath><text x="21" y="14" style="fill:#202020;font-family:Arial;font-size:14px" clip-path="url(#clip_601b7415-d74f-43f7-93ee-b2b8b5142f2b)">_id</text></g><text x="233" y="14" style="fill:#202020;font-family:Arial;font-size:14px" width="80">objectId</text><text x="334" y="14" width="22" height="14" style="fill:#202020;font-family:Arial;font-size:14px">NN</text></g><g transform="translate(10, 49)"><g transform="translate(0, 0)"><clipPath id="clip_495e139c-82cb-4a88-98d3-14753f4d0e7b"><rect x="21" y="0" width="191" height="17"></rect></clipPath><text x="21" y="14" style="fill:#202020;font-family:Arial;font-size:14px" clip-path="url(#clip_495e139c-82cb-4a88-98d3-14753f4d0e7b)">name</text></g><text x="233" y="14" style="fill:#202020;font-family:Arial;font-size:14px" width="80">string</text><text x="334" y="14" width="22" height="14" style="fill:#202020;font-family:Arial;font-size:14px"></text></g><g transform="translate(10, 73)"><g transform="translate(0, 0)"><clipPath id="clip_11cdad9c-62e7-4d3d-b4b4-61d4c4f83c32"><rect x="21" y="0" width="191" height="17"></rect></clipPath><text x="21" y="14" style="fill:#202020;font-family:Arial;font-size:14px" clip-path="url(#clip_11cdad9c-62e7-4d3d-b4b4-61d4c4f83c32)">email</text></g><text x="233" y="14" style="fill:#202020;font-family:Arial;font-size:14px" width="80">string</text><text x="334" y="14" width="22" height="14" style="fill:#202020;font-family:Arial;font-size:14px"></text></g><g transform="translate(10, 97)"><g transform="translate(0, 0)"><clipPath id="clip_4e6502d8-957e-48e2-b553-4239929ec2db"><rect x="21" y="0" width="191" height="17"></rect></clipPath><text x="21" y="14" style="fill:#202020;font-family:Arial;font-size:14px" clip-path="url(#clip_4e6502d8-957e-48e2-b553-4239929ec2db)">password</text></g><text x="233" y="14" style="fill:#202020;font-family:Arial;font-size:14px" width="80">string</text><text x="334" y="14" width="22" height="14" style="fill:#202020;font-family:Arial;font-size:14px"></text></g><g transform="translate(10, 121)"><g transform="translate(0, 0)"><clipPath id="clip_e35c61c0-1478-4fe5-9a38-f987087d2fa5"><rect x="21" y="0" width="191" height="17"></rect></clipPath><text x="21" y="14" style="fill:#202020;font-family:Arial;font-size:14px" clip-path="url(#clip_e35c61c0-1478-4fe5-9a38-f987087d2fa5)">roleId</text></g><text x="233" y="14" style="fill:#202020;font-family:Arial;font-size:14px" width="80">objectId</text><text x="334" y="14" width="22" height="14" style="fill:#202020;font-family:Arial;font-size:14px"></text></g><g transform="translate(10, 145)"><g transform="translate(0, 0)"><clipPath id="clip_233c25d4-4ca6-4921-b4b5-948c2f2a1e4c"><rect x="21" y="0" width="191" height="17"></rect></clipPath><text x="21" y="14" style="fill:#202020;font-family:Arial;font-size:14px" clip-path="url(#clip_233c25d4-4ca6-4921-b4b5-948c2f2a1e4c)">createdAt</text></g><text x="233" y="14" style="fill:#202020;font-family:Arial;font-size:14px" width="80">date</text><text x="334" y="14" width="22" height="14" style="fill:#202020;font-family:Arial;font-size:14px"></text></g><g transform="translate(10, 169)"><g transform="translate(0, 0)"><clipPath id="clip_b62909d8-a04e-4b2b-b89d-b2838ee63b6a"><rect x="21" y="0" width="191" height="17"></rect></clipPath><text x="21" y="14" style="fill:#202020;font-family:Arial;font-size:14px" clip-path="url(#clip_b62909d8-a04e-4b2b-b89d-b2838ee63b6a)">updatedAt</text></g><text x="233" y="14" style="fill:#202020;font-family:Arial;font-size:14px" width="80">date</text><text x="334" y="14" width="22" height="14" style="fill:#202020;font-family:Arial;font-size:14px"></text></g></g><rect x="0" y="0" width="380" height="218" style="fill:none;stroke:#e6eaf2"></rect></g><g transform="translate(678.17734645, 1112.2112978500002)"><rect x="0" y="0" width="380" height="242" style="fill:#fefdfe"></rect><rect x="0" y="0" width="380" height="25" style="fill:#e6eaf2"></rect><text x="10" y="14" style="font-family:&#x27;Arial&#x27;, sans-serif;font-size:14px;fill:#202020">Applications</text><g transform="translate(0, 15)"><g transform="translate(10, 25)"><g transform="translate(0, 0)"><clipPath id="clip_e94c1dd3-7590-48dc-b134-157d1323bc95"><rect x="21" y="0" width="191" height="17"></rect></clipPath><text x="21" y="14" style="fill:#202020;font-family:Arial;font-size:14px" clip-path="url(#clip_e94c1dd3-7590-48dc-b134-157d1323bc95)">_id</text></g><text x="233" y="14" style="fill:#202020;font-family:Arial;font-size:14px" width="80">objectId</text><text x="334" y="14" width="22" height="14" style="fill:#202020;font-family:Arial;font-size:14px">NN</text></g><g transform="translate(10, 49)"><g transform="translate(0, 0)"><clipPath id="clip_982a3ada-ccd2-4beb-9e0c-44df9fe979e7"><rect x="21" y="0" width="191" height="17"></rect></clipPath><text x="21" y="14" style="fill:#202020;font-family:Arial;font-size:14px" clip-path="url(#clip_982a3ada-ccd2-4beb-9e0c-44df9fe979e7)">userId</text></g><text x="233" y="14" style="fill:#202020;font-family:Arial;font-size:14px" width="80">objectId</text><text x="334" y="14" width="22" height="14" style="fill:#202020;font-family:Arial;font-size:14px"></text></g><g transform="translate(10, 73)"><g transform="translate(0, 0)"><clipPath id="clip_495e3f04-e47c-4baa-b02d-e6f08241d60e"><rect x="21" y="0" width="191" height="17"></rect></clipPath><text x="21" y="14" style="fill:#202020;font-family:Arial;font-size:14px" clip-path="url(#clip_495e3f04-e47c-4baa-b02d-e6f08241d60e)">vacancyId</text></g><text x="233" y="14" style="fill:#202020;font-family:Arial;font-size:14px" width="80">objectId</text><text x="334" y="14" width="22" height="14" style="fill:#202020;font-family:Arial;font-size:14px"></text></g><g transform="translate(10, 97)"><g transform="translate(0, 0)"><clipPath id="clip_dfb3221d-07c1-49ff-8184-1863620133d6"><rect x="21" y="0" width="191" height="17"></rect></clipPath><text x="21" y="14" style="fill:#202020;font-family:Arial;font-size:14px" clip-path="url(#clip_dfb3221d-07c1-49ff-8184-1863620133d6)">resumeId</text></g><text x="233" y="14" style="fill:#202020;font-family:Arial;font-size:14px" width="80">objectId</text><text x="334" y="14" width="22" height="14" style="fill:#202020;font-family:Arial;font-size:14px"></text></g><g transform="translate(10, 121)"><g transform="translate(0, 0)"><clipPath id="clip_1b9a89bc-d7cb-43fe-a100-1fbdddd5d36b"><rect x="21" y="0" width="191" height="17"></rect></clipPath><text x="21" y="14" style="fill:#202020;font-family:Arial;font-size:14px" clip-path="url(#clip_1b9a89bc-d7cb-43fe-a100-1fbdddd5d36b)">coverLetterId</text></g><text x="233" y="14" style="fill:#202020;font-family:Arial;font-size:14px" width="80">objectId</text><text x="334" y="14" width="22" height="14" style="fill:#202020;font-family:Arial;font-size:14px"></text></g><g transform="translate(10, 145)"><g transform="translate(0, 0)"><clipPath id="clip_5f05e19b-2616-4845-961b-6ba5b28a1780"><rect x="21" y="0" width="191" height="17"></rect></clipPath><text x="21" y="14" style="fill:#202020;font-family:Arial;font-size:14px" clip-path="url(#clip_5f05e19b-2616-4845-961b-6ba5b28a1780)">status</text></g><text x="233" y="14" style="fill:#202020;font-family:Arial;font-size:14px" width="80">enum</text><text x="334" y="14" width="22" height="14" style="fill:#202020;font-family:Arial;font-size:14px"></text></g><g transform="translate(10, 169)"><g transform="translate(0, 0)"><clipPath id="clip_52061bd3-ee38-4c7a-98a2-b032ac52012c"><rect x="21" y="0" width="191" height="17"></rect></clipPath><text x="21" y="14" style="fill:#202020;font-family:Arial;font-size:14px" clip-path="url(#clip_52061bd3-ee38-4c7a-98a2-b032ac52012c)">createdAt</text></g><text x="233" y="14" style="fill:#202020;font-family:Arial;font-size:14px" width="80">date</text><text x="334" y="14" width="22" height="14" style="fill:#202020;font-family:Arial;font-size:14px"></text></g><g transform="translate(10, 193)"><g transform="translate(0, 0)"><clipPath id="clip_97b64846-8bbe-4bde-ba54-391ccb2eabd1"><rect x="21" y="0" width="191" height="17"></rect></clipPath><text x="21" y="14" style="fill:#202020;font-family:Arial;font-size:14px" clip-path="url(#clip_97b64846-8bbe-4bde-ba54-391ccb2eabd1)">updatedAt</text></g><text x="233" y="14" style="fill:#202020;font-family:Arial;font-size:14px" width="80">date</text><text x="334" y="14" width="22" height="14" style="fill:#202020;font-family:Arial;font-size:14px"></text></g></g><rect x="0" y="0" width="380" height="242" style="fill:none;stroke:#e6eaf2"></rect></g><g transform="translate(1214.5575666999998, 812.4766483000001)"><rect x="0" y="0" width="380" height="266" style="fill:#fefdfe"></rect><rect x="0" y="0" width="380" height="25" style="fill:#e6eaf2"></rect><text x="10" y="14" style="font-family:&#x27;Arial&#x27;, sans-serif;font-size:14px;fill:#202020">Reviews</text><g transform="translate(0, 15)"><g transform="translate(10, 25)"><g transform="translate(0, 0)"><clipPath id="clip_2711a017-3164-49ac-9f42-1adb07b2125f"><rect x="21" y="0" width="191" height="17"></rect></clipPath><text x="21" y="14" style="fill:#202020;font-family:Arial;font-size:14px" clip-path="url(#clip_2711a017-3164-49ac-9f42-1adb07b2125f)">_id</text></g><text x="233" y="14" style="fill:#202020;font-family:Arial;font-size:14px" width="80">objectId</text><text x="334" y="14" width="22" height="14" style="fill:#202020;font-family:Arial;font-size:14px">NN</text></g><g transform="translate(10, 49)"><g transform="translate(0, 0)"><clipPath id="clip_5b785352-436b-4447-96f5-fd57c4c4d8c1"><rect x="21" y="0" width="191" height="17"></rect></clipPath><text x="21" y="14" style="fill:#202020;font-family:Arial;font-size:14px" clip-path="url(#clip_5b785352-436b-4447-96f5-fd57c4c4d8c1)">userId</text></g><text x="233" y="14" style="fill:#202020;font-family:Arial;font-size:14px" width="80">objectId</text><text x="334" y="14" width="22" height="14" style="fill:#202020;font-family:Arial;font-size:14px"></text></g><g transform="translate(10, 73)"><g transform="translate(0, 0)"><clipPath id="clip_66eb9447-37cd-4eac-8d3a-a08354d380ec"><rect x="21" y="0" width="191" height="17"></rect></clipPath><text x="21" y="14" style="fill:#202020;font-family:Arial;font-size:14px" clip-path="url(#clip_66eb9447-37cd-4eac-8d3a-a08354d380ec)">vacancyId</text></g><text x="233" y="14" style="fill:#202020;font-family:Arial;font-size:14px" width="80">objectId</text><text x="334" y="14" width="22" height="14" style="fill:#202020;font-family:Arial;font-size:14px"></text></g><g transform="translate(10, 97)"><g transform="translate(0, 0)"><clipPath id="clip_4af55b28-420c-4cd8-a3bd-63b63bb07bfc"><rect x="21" y="0" width="191" height="17"></rect></clipPath><text x="21" y="14" style="fill:#202020;font-family:Arial;font-size:14px" clip-path="url(#clip_4af55b28-420c-4cd8-a3bd-63b63bb07bfc)">companyId</text></g><text x="233" y="14" style="fill:#202020;font-family:Arial;font-size:14px" width="80">objectId</text><text x="334" y="14" width="22" height="14" style="fill:#202020;font-family:Arial;font-size:14px"></text></g><g transform="translate(10, 121)"><g transform="translate(0, 0)"><clipPath id="clip_fa05507f-a984-421c-98c1-4e8ca3d3228a"><rect x="21" y="0" width="191" height="17"></rect></clipPath><text x="21" y="14" style="fill:#202020;font-family:Arial;font-size:14px" clip-path="url(#clip_fa05507f-a984-421c-98c1-4e8ca3d3228a)">targetUserId</text></g><text x="233" y="14" style="fill:#202020;font-family:Arial;font-size:14px" width="80">objectId</text><text x="334" y="14" width="22" height="14" style="fill:#202020;font-family:Arial;font-size:14px"></text></g><g transform="translate(10, 145)"><g transform="translate(0, 0)"><clipPath id="clip_fff2bad0-be4f-4943-84fd-e06a2d0d3471"><rect x="21" y="0" width="191" height="17"></rect></clipPath><text x="21" y="14" style="fill:#202020;font-family:Arial;font-size:14px" clip-path="url(#clip_fff2bad0-be4f-4943-84fd-e06a2d0d3471)">rating</text></g><text x="233" y="14" style="fill:#202020;font-family:Arial;font-size:14px" width="80">int</text><text x="334" y="14" width="22" height="14" style="fill:#202020;font-family:Arial;font-size:14px"></text></g><g transform="translate(10, 169)"><g transform="translate(0, 0)"><clipPath id="clip_616754f5-e3e6-4e7e-b65f-0343a19711a0"><rect x="21" y="0" width="191" height="17"></rect></clipPath><text x="21" y="14" style="fill:#202020;font-family:Arial;font-size:14px" clip-path="url(#clip_616754f5-e3e6-4e7e-b65f-0343a19711a0)">comment</text></g><text x="233" y="14" style="fill:#202020;font-family:Arial;font-size:14px" width="80">string</text><text x="334" y="14" width="22" height="14" style="fill:#202020;font-family:Arial;font-size:14px"></text></g><g transform="translate(10, 193)"><g transform="translate(0, 0)"><clipPath id="clip_a7f24440-aa42-4151-a0a3-5f703568bb99"><rect x="21" y="0" width="191" height="17"></rect></clipPath><text x="21" y="14" style="fill:#202020;font-family:Arial;font-size:14px" clip-path="url(#clip_a7f24440-aa42-4151-a0a3-5f703568bb99)">createdAt</text></g><text x="233" y="14" style="fill:#202020;font-family:Arial;font-size:14px" width="80">date</text><text x="334" y="14" width="22" height="14" style="fill:#202020;font-family:Arial;font-size:14px"></text></g><g transform="translate(10, 217)"><g transform="translate(0, 0)"><clipPath id="clip_789e9009-cd6c-4b08-a8cb-079e9d34e809"><rect x="21" y="0" width="191" height="17"></rect></clipPath><text x="21" y="14" style="fill:#202020;font-family:Arial;font-size:14px" clip-path="url(#clip_789e9009-cd6c-4b08-a8cb-079e9d34e809)">updatedAt</text></g><text x="233" y="14" style="fill:#202020;font-family:Arial;font-size:14px" width="80">date</text><text x="334" y="14" width="22" height="14" style="fill:#202020;font-family:Arial;font-size:14px"></text></g></g><rect x="0" y="0" width="380" height="266" style="fill:none;stroke:#e6eaf2"></rect></g><g transform="translate(1145.4760255000003, 1158.7947147999998)"><rect x="0" y="0" width="380" height="242" style="fill:#fefdfe"></rect><rect x="0" y="0" width="380" height="25" style="fill:#e6eaf2"></rect><text x="10" y="14" style="font-family:&#x27;Arial&#x27;, sans-serif;font-size:14px;fill:#202020">Vacancies</text><g transform="translate(0, 15)"><g transform="translate(10, 25)"><g transform="translate(0, 0)"><clipPath id="clip_8a6d9e0f-f7c8-414e-b857-88e82bb187d2"><rect x="21" y="0" width="191" height="17"></rect></clipPath><text x="21" y="14" style="fill:#202020;font-family:Arial;font-size:14px" clip-path="url(#clip_8a6d9e0f-f7c8-414e-b857-88e82bb187d2)">_id</text></g><text x="233" y="14" style="fill:#202020;font-family:Arial;font-size:14px" width="80">objectId</text><text x="334" y="14" width="22" height="14" style="fill:#202020;font-family:Arial;font-size:14px">NN</text></g><g transform="translate(10, 49)"><g transform="translate(0, 0)"><clipPath id="clip_c5a32559-c4fd-48fd-9835-af1a7e931f59"><rect x="21" y="0" width="191" height="17"></rect></clipPath><text x="21" y="14" style="fill:#202020;font-family:Arial;font-size:14px" clip-path="url(#clip_c5a32559-c4fd-48fd-9835-af1a7e931f59)">title</text></g><text x="233" y="14" style="fill:#202020;font-family:Arial;font-size:14px" width="80">string</text><text x="334" y="14" width="22" height="14" style="fill:#202020;font-family:Arial;font-size:14px"></text></g><g transform="translate(10, 73)"><g transform="translate(0, 0)"><clipPath id="clip_ca3c8a4b-3921-4633-baf2-2dde2e351234"><rect x="21" y="0" width="191" height="17"></rect></clipPath><text x="21" y="14" style="fill:#202020;font-family:Arial;font-size:14px" clip-path="url(#clip_ca3c8a4b-3921-4633-baf2-2dde2e351234)">description</text></g><text x="233" y="14" style="fill:#202020;font-family:Arial;font-size:14px" width="80">string</text><text x="334" y="14" width="22" height="14" style="fill:#202020;font-family:Arial;font-size:14px"></text></g><g transform="translate(10, 97)"><g transform="translate(0, 0)"><clipPath id="clip_080ec760-c664-4019-b73e-735753620042"><rect x="21" y="0" width="191" height="17"></rect></clipPath><text x="21" y="14" style="fill:#202020;font-family:Arial;font-size:14px" clip-path="url(#clip_080ec760-c664-4019-b73e-735753620042)">companyId</text></g><text x="233" y="14" style="fill:#202020;font-family:Arial;font-size:14px" width="80">objectId</text><text x="334" y="14" width="22" height="14" style="fill:#202020;font-family:Arial;font-size:14px"></text></g><g transform="translate(10, 121)"><g transform="translate(0, 0)"><clipPath id="clip_a46c9435-baa3-479c-bbb3-0c349df9478a"><rect x="21" y="0" width="191" height="17"></rect></clipPath><text x="21" y="14" style="fill:#202020;font-family:Arial;font-size:14px" clip-path="url(#clip_a46c9435-baa3-479c-bbb3-0c349df9478a)">location</text></g><text x="233" y="14" style="fill:#202020;font-family:Arial;font-size:14px" width="80">string</text><text x="334" y="14" width="22" height="14" style="fill:#202020;font-family:Arial;font-size:14px"></text></g><g transform="translate(10, 145)"><g transform="translate(0, 0)"><clipPath id="clip_4aa68203-da63-4210-a416-d7f8a621eacf"><rect x="21" y="0" width="191" height="17"></rect></clipPath><text x="21" y="14" style="fill:#202020;font-family:Arial;font-size:14px" clip-path="url(#clip_4aa68203-da63-4210-a416-d7f8a621eacf)">category</text></g><text x="233" y="14" style="fill:#202020;font-family:Arial;font-size:14px" width="80">enum</text><text x="334" y="14" width="22" height="14" style="fill:#202020;font-family:Arial;font-size:14px"></text></g><g transform="translate(10, 169)"><g transform="translate(0, 0)"><clipPath id="clip_0a24c58b-5561-4496-8608-c7f504702a14"><rect x="21" y="0" width="191" height="17"></rect></clipPath><text x="21" y="14" style="fill:#202020;font-family:Arial;font-size:14px" clip-path="url(#clip_0a24c58b-5561-4496-8608-c7f504702a14)">createdAt</text></g><text x="233" y="14" style="fill:#202020;font-family:Arial;font-size:14px" width="80">date</text><text x="334" y="14" width="22" height="14" style="fill:#202020;font-family:Arial;font-size:14px"></text></g><g transform="translate(10, 193)"><g transform="translate(0, 0)"><clipPath id="clip_cff2a0b7-22d7-426a-bfcd-ef4e0364d80c"><rect x="21" y="0" width="191" height="17"></rect></clipPath><text x="21" y="14" style="fill:#202020;font-family:Arial;font-size:14px" clip-path="url(#clip_cff2a0b7-22d7-426a-bfcd-ef4e0364d80c)">updatedAt</text></g><text x="233" y="14" style="fill:#202020;font-family:Arial;font-size:14px" width="80">date</text><text x="334" y="14" width="22" height="14" style="fill:#202020;font-family:Arial;font-size:14px"></text></g></g><rect x="0" y="0" width="380" height="242" style="fill:none;stroke:#e6eaf2"></rect></g><g transform="translate(194.18122825000034, 937.1086327)"><rect x="0" y="0" width="380" height="170" style="fill:#fefdfe"></rect><rect x="0" y="0" width="380" height="25" style="fill:#e6eaf2"></rect><text x="10" y="14" style="font-family:&#x27;Arial&#x27;, sans-serif;font-size:14px;fill:#202020">Resumes</text><g transform="translate(0, 15)"><g transform="translate(10, 25)"><g transform="translate(0, 0)"><clipPath id="clip_f915c7da-99ef-4545-a72c-788a46ec9bb2"><rect x="21" y="0" width="191" height="17"></rect></clipPath><text x="21" y="14" style="fill:#202020;font-family:Arial;font-size:14px" clip-path="url(#clip_f915c7da-99ef-4545-a72c-788a46ec9bb2)">_id</text></g><text x="233" y="14" style="fill:#202020;font-family:Arial;font-size:14px" width="80">objectId</text><text x="334" y="14" width="22" height="14" style="fill:#202020;font-family:Arial;font-size:14px">NN</text></g><g transform="translate(10, 49)"><g transform="translate(0, 0)"><clipPath id="clip_9b32d33b-cbfe-45a2-bcfe-5accc21d2160"><rect x="21" y="0" width="191" height="17"></rect></clipPath><text x="21" y="14" style="fill:#202020;font-family:Arial;font-size:14px" clip-path="url(#clip_9b32d33b-cbfe-45a2-bcfe-5accc21d2160)">userId</text></g><text x="233" y="14" style="fill:#202020;font-family:Arial;font-size:14px" width="80">objectId</text><text x="334" y="14" width="22" height="14" style="fill:#202020;font-family:Arial;font-size:14px"></text></g><g transform="translate(10, 73)"><g transform="translate(0, 0)"><clipPath id="clip_18bcc7fa-00a5-434f-a5f3-e30b65098dbe"><rect x="21" y="0" width="191" height="17"></rect></clipPath><text x="21" y="14" style="fill:#202020;font-family:Arial;font-size:14px" clip-path="url(#clip_18bcc7fa-00a5-434f-a5f3-e30b65098dbe)">content</text></g><text x="233" y="14" style="fill:#202020;font-family:Arial;font-size:14px" width="80">string</text><text x="334" y="14" width="22" height="14" style="fill:#202020;font-family:Arial;font-size:14px"></text></g><g transform="translate(10, 97)"><g transform="translate(0, 0)"><clipPath id="clip_221729f7-b7ec-4a40-9234-a950e3a241c6"><rect x="21" y="0" width="191" height="17"></rect></clipPath><text x="21" y="14" style="fill:#202020;font-family:Arial;font-size:14px" clip-path="url(#clip_221729f7-b7ec-4a40-9234-a950e3a241c6)">createdAt</text></g><text x="233" y="14" style="fill:#202020;font-family:Arial;font-size:14px" width="80">date</text><text x="334" y="14" width="22" height="14" style="fill:#202020;font-family:Arial;font-size:14px"></text></g><g transform="translate(10, 121)"><g transform="translate(0, 0)"><clipPath id="clip_fcf3cc2f-4a56-4e36-8d0f-e8f03f446d0f"><rect x="21" y="0" width="191" height="17"></rect></clipPath><text x="21" y="14" style="fill:#202020;font-family:Arial;font-size:14px" clip-path="url(#clip_fcf3cc2f-4a56-4e36-8d0f-e8f03f446d0f)">updatedAt</text></g><text x="233" y="14" style="fill:#202020;font-family:Arial;font-size:14px" width="80">date</text><text x="334" y="14" width="22" height="14" style="fill:#202020;font-family:Arial;font-size:14px"></text></g></g><rect x="0" y="0" width="380" height="170" style="fill:none;stroke:#e6eaf2"></rect></g><g transform="translate(217.5528968499999, 1210.6886443)"><rect x="0" y="0" width="380" height="146" style="fill:#fefdfe"></rect><rect x="0" y="0" width="380" height="25" style="fill:#e6eaf2"></rect><text x="10" y="14" style="font-family:&#x27;Arial&#x27;, sans-serif;font-size:14px;fill:#202020">CoverLetters</text><g transform="translate(0, 15)"><g transform="translate(10, 25)"><g transform="translate(0, 0)"><clipPath id="clip_42c1926a-3b58-4f86-a1ee-bd1b49736ac9"><rect x="21" y="0" width="191" height="17"></rect></clipPath><text x="21" y="14" style="fill:#202020;font-family:Arial;font-size:14px" clip-path="url(#clip_42c1926a-3b58-4f86-a1ee-bd1b49736ac9)">_id</text></g><text x="233" y="14" style="fill:#202020;font-family:Arial;font-size:14px" width="80">objectId</text><text x="334" y="14" width="22" height="14" style="fill:#202020;font-family:Arial;font-size:14px">NN</text></g><g transform="translate(10, 49)"><g transform="translate(0, 0)"><clipPath id="clip_a1dc8060-a0ae-405b-97e0-0878d5852f46"><rect x="21" y="0" width="191" height="17"></rect></clipPath><text x="21" y="14" style="fill:#202020;font-family:Arial;font-size:14px" clip-path="url(#clip_a1dc8060-a0ae-405b-97e0-0878d5852f46)">content</text></g><text x="233" y="14" style="fill:#202020;font-family:Arial;font-size:14px" width="80">string</text><text x="334" y="14" width="22" height="14" style="fill:#202020;font-family:Arial;font-size:14px"></text></g><g transform="translate(10, 73)"><g transform="translate(0, 0)"><clipPath id="clip_b4f71cdf-75c4-4144-bf59-f12e38c945f2"><rect x="21" y="0" width="191" height="17"></rect></clipPath><text x="21" y="14" style="fill:#202020;font-family:Arial;font-size:14px" clip-path="url(#clip_b4f71cdf-75c4-4144-bf59-f12e38c945f2)">createdAt</text></g><text x="233" y="14" style="fill:#202020;font-family:Arial;font-size:14px" width="80">date</text><text x="334" y="14" width="22" height="14" style="fill:#202020;font-family:Arial;font-size:14px"></text></g><g transform="translate(10, 97)"><g transform="translate(0, 0)"><clipPath id="clip_804cdd88-28a0-4696-b815-ec81be0175c2"><rect x="21" y="0" width="191" height="17"></rect></clipPath><text x="21" y="14" style="fill:#202020;font-family:Arial;font-size:14px" clip-path="url(#clip_804cdd88-28a0-4696-b815-ec81be0175c2)">updatedAt</text></g><text x="233" y="14" style="fill:#202020;font-family:Arial;font-size:14px" width="80">date</text><text x="334" y="14" width="22" height="14" style="fill:#202020;font-family:Arial;font-size:14px"></text></g></g><rect x="0" y="0" width="380" height="146" style="fill:none;stroke:#e6eaf2"></rect></g><g><svg><defs><filter id="table_glow"><feGaussianBlur stdDeviation="3.5" result="coloredBlur"></feGaussianBlur><feMerge><feMergeNode in="coloredBlur"></feMergeNode><feMergeNode in="SourceGraphic"></feMergeNode></feMerge></filter></defs><path d="
M 1062.4472770000002 988.0114137
H 1072.4472770000002
V 749.8307068500001
H 1049.5666860000001
" fill="none" stroke="#ecad5a" stroke-width="2"></path><g><line x1="1062.4472770000002" y1="988.0114137" x2="1052.4472770000002" y2="988.0114137" stroke="#ecad5a" stroke-width="2"></line><line x1="1062.4472770000002" y1="988.0114137" x2="1052.4472770000002" y2="983.0114137" stroke="#ecad5a" stroke-width="2"></line><line x1="1062.4472770000002" y1="988.0114137" x2="1052.4472770000002" y2="993.0114137" stroke="#ecad5a" stroke-width="2"></line></g></svg><svg><defs><filter id="table_glow"><feGaussianBlur stdDeviation="3.5" result="coloredBlur"></feGaussianBlur><feMerge><feMergeNode in="coloredBlur"></feMergeNode><feMergeNode in="SourceGraphic"></feMergeNode></feMerge></filter></defs><line x1="672.4472770000002" y1="892.0114137" x2="584.1812282500003" y2="1011.1086327" stroke="#ecad5a" stroke-width="2"></line><g><line x1="584.1812282500003" y1="1011.1086327" x2="574.1812282500003" y2="1011.1086327" stroke="#ecad5a" stroke-width="2"></line><line x1="584.1812282500003" y1="1011.1086327" x2="574.1812282500003" y2="1006.1086327" stroke="#ecad5a" stroke-width="2"></line><line x1="584.1812282500003" y1="1011.1086327" x2="574.1812282500003" y2="1016.1086327" stroke="#ecad5a" stroke-width="2"></line></g></svg><svg><defs><filter id="table_glow"><feGaussianBlur stdDeviation="3.5" result="coloredBlur"></feGaussianBlur><feMerge><feMergeNode in="coloredBlur"></feMergeNode><feMergeNode in="SourceGraphic"></feMergeNode></feMerge></filter></defs><path d="
M 672.4472770000002 892.0114137 
H 652.4472770000002 
V 1186.2112978500002 
H 668.17734645
" fill="none" stroke="#ecad5a" stroke-width="2"></path><g><line x1="668.17734645" y1="1186.2112978500002" x2="678.17734645" y2="1186.2112978500002" stroke="#ecad5a" stroke-width="2"></line><line x1="668.17734645" y1="1186.2112978500002" x2="678.17734645" y2="1181.2112978500002" stroke="#ecad5a" stroke-width="2"></line><line x1="668.17734645" y1="1186.2112978500002" x2="678.17734645" y2="1191.2112978500002" stroke="#ecad5a" stroke-width="2"></line></g></svg><svg><defs><filter id="table_glow"><feGaussianBlur stdDeviation="3.5" result="coloredBlur"></feGaussianBlur><feMerge><feMergeNode in="coloredBlur"></feMergeNode><feMergeNode in="SourceGraphic"></feMergeNode></feMerge></filter></defs><line x1="1052.4472770000002" y1="892.0114137" x2="1126.1485741500003" y2="654.1186685999998" stroke="#ecad5a" stroke-width="2"></line><g><line x1="1126.1485741500003" y1="654.1186685999998" x2="1136.1485741500003" y2="654.1186685999998" stroke="#ecad5a" stroke-width="2"></line><line x1="1126.1485741500003" y1="654.1186685999998" x2="1136.1485741500003" y2="649.1186685999998" stroke="#ecad5a" stroke-width="2"></line><line x1="1126.1485741500003" y1="654.1186685999998" x2="1136.1485741500003" y2="659.1186685999998" stroke="#ecad5a" stroke-width="2"></line></g></svg><svg><defs><filter id="table_glow"><feGaussianBlur stdDeviation="3.5" result="coloredBlur"></feGaussianBlur><feMerge><feMergeNode in="coloredBlur"></feMergeNode><feMergeNode in="SourceGraphic"></feMergeNode></feMerge></filter></defs><line x1="1052.4472770000002" y1="892.0114137" x2="1204.5575666999998" y2="886.4766483000001" stroke="#ecad5a" stroke-width="2"></line><g><line x1="1204.5575666999998" y1="886.4766483000001" x2="1214.5575666999998" y2="886.4766483000001" stroke="#ecad5a" stroke-width="2"></line><line x1="1204.5575666999998" y1="886.4766483000001" x2="1214.5575666999998" y2="881.4766483000001" stroke="#ecad5a" stroke-width="2"></line><line x1="1204.5575666999998" y1="886.4766483000001" x2="1214.5575666999998" y2="891.4766483000001" stroke="#ecad5a" stroke-width="2"></line></g></svg><svg><defs><filter id="table_glow"><feGaussianBlur stdDeviation="3.5" result="coloredBlur"></feGaussianBlur><feMerge><feMergeNode in="coloredBlur"></feMergeNode><feMergeNode in="SourceGraphic"></feMergeNode></feMerge></filter></defs><line x1="1145.4760255000003" y1="1208.7947147999998" x2="1068.17734645" y2="1210.2112978500002" stroke="#ecad5a" stroke-width="2"></line><g><line x1="1068.17734645" y1="1210.2112978500002" x2="1058.17734645" y2="1210.2112978500002" stroke="#ecad5a" stroke-width="2"></line><line x1="1068.17734645" y1="1210.2112978500002" x2="1058.17734645" y2="1205.2112978500002" stroke="#ecad5a" stroke-width="2"></line><line x1="1068.17734645" y1="1210.2112978500002" x2="1058.17734645" y2="1215.2112978500002" stroke="#ecad5a" stroke-width="2"></line></g></svg><svg><defs><filter id="table_glow"><feGaussianBlur stdDeviation="3.5" result="coloredBlur"></feGaussianBlur><feMerge><feMergeNode in="coloredBlur"></feMergeNode><feMergeNode in="SourceGraphic"></feMergeNode></feMerge></filter></defs><path d="
M 1145.4760255000003 1208.7947147999998 
H 1125.4760255000003 
V 910.4766483000001 
H 1204.5575666999998
" fill="none" stroke="#ecad5a" stroke-width="2"></path><g><line x1="1204.5575666999998" y1="910.4766483000001" x2="1214.5575666999998" y2="910.4766483000001" stroke="#ecad5a" stroke-width="2"></line><line x1="1204.5575666999998" y1="910.4766483000001" x2="1214.5575666999998" y2="905.4766483000001" stroke="#ecad5a" stroke-width="2"></line><line x1="1204.5575666999998" y1="910.4766483000001" x2="1214.5575666999998" y2="915.4766483000001" stroke="#ecad5a" stroke-width="2"></line></g></svg><svg><defs><filter id="table_glow"><feGaussianBlur stdDeviation="3.5" result="coloredBlur"></feGaussianBlur><feMerge><feMergeNode in="coloredBlur"></feMergeNode><feMergeNode in="SourceGraphic"></feMergeNode></feMerge></filter></defs><line x1="1602.1858504000006" y1="1280.7720803999998" x2="1535.4760255000003" y2="1280.7947147999998" stroke="#ecad5a" stroke-width="2"></line><g><line x1="1535.4760255000003" y1="1280.7947147999998" x2="1525.4760255000003" y2="1280.7947147999998" stroke="#ecad5a" stroke-width="2"></line><line x1="1535.4760255000003" y1="1280.7947147999998" x2="1525.4760255000003" y2="1275.7947147999998" stroke="#ecad5a" stroke-width="2"></line><line x1="1535.4760255000003" y1="1280.7947147999998" x2="1525.4760255000003" y2="1285.7947147999998" stroke="#ecad5a" stroke-width="2"></line></g></svg><svg><defs><filter id="table_glow"><feGaussianBlur stdDeviation="3.5" result="coloredBlur"></feGaussianBlur><feMerge><feMergeNode in="coloredBlur"></feMergeNode><feMergeNode in="SourceGraphic"></feMergeNode></feMerge></filter></defs><line x1="678.17734645" y1="1258.2112978500002" x2="597.5528968499999" y2="1260.6886443" stroke="#ecad5a" stroke-width="2"></line></svg><svg><defs><filter id="table_glow"><feGaussianBlur stdDeviation="3.5" result="coloredBlur"></feGaussianBlur><feMerge><feMergeNode in="coloredBlur"></feMergeNode><feMergeNode in="SourceGraphic"></feMergeNode></feMerge></filter></defs><path d="
M 1058.17734645 1162.2112978500002
H 1078.17734645
V 1498.9649131499998
H 1061.67129025
" fill="none" stroke="#ecad5a" stroke-width="2"></path><g><line x1="1061.67129025" y1="1498.9649131499998" x2="1051.67129025" y2="1498.9649131499998" stroke="#ecad5a" stroke-width="2"></line><line x1="1061.67129025" y1="1498.9649131499998" x2="1051.67129025" y2="1493.9649131499998" stroke="#ecad5a" stroke-width="2"></line><line x1="1061.67129025" y1="1498.9649131499998" x2="1051.67129025" y2="1503.9649131499998" stroke="#ecad5a" stroke-width="2"></line></g></svg><svg><defs><filter id="table_glow"><feGaussianBlur stdDeviation="3.5" result="coloredBlur"></feGaussianBlur><feMerge><feMergeNode in="coloredBlur"></feMergeNode><feMergeNode in="SourceGraphic"></feMergeNode></feMerge></filter></defs><line x1="678.17734645" y1="1234.2112978500002" x2="584.1812282500003" y2="987.1086327" stroke="#ecad5a" stroke-width="2"></line><g><line x1="584.1812282500003" y1="987.1086327" x2="574.1812282500003" y2="987.1086327" stroke="#ecad5a" stroke-width="2"></line><line x1="584.1812282500003" y1="987.1086327" x2="574.1812282500003" y2="982.1086327" stroke="#ecad5a" stroke-width="2"></line><line x1="584.1812282500003" y1="987.1086327" x2="574.1812282500003" y2="992.1086327" stroke="#ecad5a" stroke-width="2"></line></g></svg><svg><defs><filter id="table_glow"><feGaussianBlur stdDeviation="3.5" result="coloredBlur"></feGaussianBlur><feMerge><feMergeNode in="coloredBlur"></feMergeNode><feMergeNode in="SourceGraphic"></feMergeNode></feMerge></filter></defs><line x1="1602.1858504000006" y1="1280.7720803999998" x2="1604.5575666999998" y2="934.4766483000001" stroke="#ecad5a" stroke-width="2"></line><g><line x1="1604.5575666999998" y1="934.4766483000001" x2="1594.5575666999998" y2="934.4766483000001" stroke="#ecad5a" stroke-width="2"></line><line x1="1604.5575666999998" y1="934.4766483000001" x2="1594.5575666999998" y2="929.4766483000001" stroke="#ecad5a" stroke-width="2"></line><line x1="1604.5575666999998" y1="934.4766483000001" x2="1594.5575666999998" y2="939.4766483000001" stroke="#ecad5a" stroke-width="2"></line></g></svg><svg><defs><filter id="table_glow"><feGaussianBlur stdDeviation="3.5" result="coloredBlur"></feGaussianBlur><feMerge><feMergeNode in="coloredBlur"></feMergeNode><feMergeNode in="SourceGraphic"></feMergeNode></feMerge></filter></defs><line x1="1204.5575666999998" y1="958.4766483000001" x2="1052.4472770000002" y2="892.0114137" stroke="#ecad5a" stroke-width="2"></line><g><line x1="1204.5575666999998" y1="958.4766483000001" x2="1214.5575666999998" y2="958.4766483000001" stroke="#ecad5a" stroke-width="2"></line><line x1="1204.5575666999998" y1="958.4766483000001" x2="1214.5575666999998" y2="953.4766483000001" stroke="#ecad5a" stroke-width="2"></line><line x1="1204.5575666999998" y1="958.4766483000001" x2="1214.5575666999998" y2="963.4766483000001" stroke="#ecad5a" stroke-width="2"></line></g></svg></g></svg>